# xmcd
#
# Track frame offsets: 
#        150
#        19385
#        35113
#        48455
#        64890
#        77358
#        90200
#        100980
#        117208
#        130438
#        146630
#        160660
#        180228
#        194585
#        212808
#
# Disc length: 2958 seconds
#
# Revision: 1
# Processed by: cddbd v1.5.2PL0 Copyright (c) Steve Scherf et al.
# Submitted via: ExactAudioCopyFreeDBPlugin 1.0
#
DISCID=ce0b8c0f
DTITLE=Marionette　（マリオネット） - Nostalgia
DYEAR=1999
DGENRE=Acoustic
TTITLE0=イベリア- IBERIA -
TTITLE1=花の葬列- FAREWELL FLOWERS -
TTITLE2=ファドのワルツ- NOSTALGIC WALTZ -
TTITLE3=トライアングルな関係-SITUCOES TRIANGULARES-
TTITLE4=沖縄センチメンタル- OKINAWA SENTIMENTAL -
TTITLE5=ノスタルジア月光-NOSTALGIA DE LUNA-
TTITLE6=はたらく日本人- PROBLEM OF SALESMAN -
TTITLE7=石の花- HARD AND SOFT -
TTITLE8=守銭奴- MISER -
TTITLE9=フェスタス・デ・リスボア- FESTAS DE LISBOA -
TTITLE10=風船のゆくえ- HELLO MY ANGEL -
TTITLE11=東西巡礼-ザビエル幻視-PEREGRINACAO DESTE MUNDO-
TTITLE12=私は知っている- I FEEL MYSELF -
TTITLE13=星ノ道標- SOLITUDE BUT A STAR -
TTITLE14=午後の睡蓮- GOOD AFTERNOON MR.MONET -
EXTD=YEAR: 1999
EXTT0=
EXTT1=
EXTT2=
EXTT3=
EXTT4=
EXTT5=
EXTT6=
EXTT7=
EXTT8=
EXTT9=
EXTT10=
EXTT11=
EXTT12=
EXTT13=
EXTT14=
PLAYORDER=
